<svg width="43" height="43" viewBox="0 0 43 43" fill="none" xmlns="http://www.w3.org/2000/svg">
<rect x="0.5" y="0.5" width="42" height="42" rx="21" fill="#F2F4F6"/>
<rect x="0.5" y="0.5" width="42" height="42" rx="21" stroke="#E4E6E8"/>
<path d="M24.9915 13.876H18.0082C14.9748 13.876 13.1665 15.6843 13.1665 18.7176V25.6927C13.1665 28.7343 14.9748 30.5427 18.0082 30.5427H24.9832C28.0165 30.5427 29.8248 28.7343 29.8248 25.701V18.7176C29.8332 15.6843 28.0248 13.876 24.9915 13.876ZM21.4998 25.4427C19.7165 25.4427 18.2665 23.9927 18.2665 22.2093C18.2665 20.426 19.7165 18.976 21.4998 18.976C23.2832 18.976 24.7332 20.426 24.7332 22.2093C24.7332 23.9927 23.2832 25.4427 21.4998 25.4427ZM26.4332 17.9426C26.3915 18.0426 26.3332 18.1343 26.2582 18.2176C26.1748 18.2926 26.0832 18.351 25.9832 18.3926C25.8832 18.4343 25.7748 18.4593 25.6665 18.4593C25.4415 18.4593 25.2332 18.376 25.0748 18.2176C24.9998 18.1343 24.9415 18.0426 24.8998 17.9426C24.8582 17.8426 24.8332 17.7343 24.8332 17.626C24.8332 17.5176 24.8582 17.4093 24.8998 17.3093C24.9415 17.201 24.9998 17.1176 25.0748 17.0343C25.2665 16.8426 25.5582 16.751 25.8248 16.8093C25.8832 16.8176 25.9332 16.8343 25.9832 16.8593C26.0332 16.876 26.0832 16.901 26.1332 16.9343C26.1748 16.9593 26.2165 17.001 26.2582 17.0343C26.3332 17.1176 26.3915 17.201 26.4332 17.3093C26.4748 17.4093 26.4998 17.5176 26.4998 17.626C26.4998 17.7343 26.4748 17.8426 26.4332 17.9426Z" fill="black"/>
</svg>
