<svg width="43" height="43" viewBox="0 0 43 43" fill="none" xmlns="http://www.w3.org/2000/svg">
<rect x="0.5" y="0.5" width="42" height="42" rx="21" fill="#F2F4F6"/>
<rect x="0.5" y="0.5" width="42" height="42" rx="21" stroke="#E4E6E8"/>
<path d="M19.8239 25.446L24.9225 22.4988L19.8239 19.5516V25.446ZM31.1803 17.7539C31.308 18.2156 31.3964 18.8345 31.4554 19.6204C31.5242 20.4063 31.5536 21.0841 31.5536 21.6736L31.6126 22.4988C31.6126 24.6502 31.4554 26.2319 31.1803 27.2437C30.9347 28.1279 30.3649 28.6977 29.4808 28.9433C29.0191 29.071 28.1742 29.1594 26.8775 29.2183C25.6004 29.2871 24.4313 29.3166 23.3507 29.3166L21.7887 29.3755C17.6725 29.3755 15.1085 29.2183 14.0966 28.9433C13.2125 28.6977 12.6427 28.1279 12.3971 27.2437C12.2694 26.782 12.181 26.1631 12.122 25.3772C12.0533 24.5913 12.0238 23.9134 12.0238 23.324L11.9648 22.4988C11.9648 20.3474 12.122 18.7657 12.3971 17.7539C12.6427 16.8697 13.2125 16.2999 14.0966 16.0543C14.5583 15.9266 15.4032 15.8382 16.7 15.7793C17.9771 15.7105 19.1461 15.681 20.2267 15.681L21.7887 15.6221C25.9049 15.6221 28.4689 15.7793 29.4808 16.0543C30.3649 16.2999 30.9347 16.8697 31.1803 17.7539Z" fill="black"/>
</svg>
