<svg width="43" height="43" viewBox="0 0 43 43" fill="none" xmlns="http://www.w3.org/2000/svg">
<rect x="0.5" y="0.5" width="42" height="42" rx="21" fill="#F2F4F6"/>
<rect x="0.5" y="0.5" width="42" height="42" rx="21" stroke="#E4E6E8"/>
<path d="M29.6924 17.2765L27.3565 19.6125C26.8846 25.0828 22.2713 29.3344 16.7502 29.3344C15.6158 29.3344 14.6807 29.1547 13.9705 28.8C13.3979 28.5133 13.1635 28.2062 13.1049 28.1187C13.0527 28.0404 13.0188 27.9512 13.0058 27.858C12.9929 27.7647 13.0012 27.6697 13.0301 27.5801C13.059 27.4904 13.1078 27.4085 13.1729 27.3404C13.2379 27.2723 13.3175 27.2197 13.4057 27.1867C13.426 27.1789 15.2994 26.4594 16.4893 25.0898C15.8294 24.5473 15.2534 23.9102 14.7799 23.1992C13.8112 21.7609 12.7268 19.2625 13.0612 15.5289C13.0718 15.4102 13.116 15.2971 13.1888 15.2028C13.2615 15.1085 13.3597 15.0369 13.4718 14.9965C13.5838 14.9561 13.7051 14.9486 13.8213 14.9748C13.9374 15.001 14.0437 15.0599 14.1276 15.1445C14.1549 15.1718 16.7276 17.7304 19.8729 18.5601V18.0843C19.8717 17.5854 19.9703 17.0913 20.163 16.6311C20.3557 16.1709 20.6385 15.7539 20.9948 15.4047C21.3408 15.0591 21.7525 14.7864 22.2056 14.6026C22.6587 14.4187 23.1441 14.3275 23.633 14.3343C24.2889 14.3408 24.932 14.5169 25.4997 14.8454C26.0674 15.174 26.5405 15.6439 26.8729 16.2093H29.2502C29.3739 16.2092 29.4948 16.2458 29.5977 16.3145C29.7006 16.3832 29.7808 16.4808 29.8281 16.5951C29.8755 16.7094 29.8878 16.8351 29.8637 16.9564C29.8395 17.0777 29.7799 17.1891 29.6924 17.2765Z" fill="black"/>
</svg>
