<svg width="43" height="43" viewBox="0 0 43 43" fill="none" xmlns="http://www.w3.org/2000/svg">
<rect x="0.5" y="0.5" width="42" height="42" rx="21" fill="#F2F4F6"/>
<rect x="0.5" y="0.5" width="42" height="42" rx="21" stroke="#E4E6E8"/>
<path d="M29.8334 25.701C29.8334 28.7343 28.0251 30.5427 24.9917 30.5427H24.0001C23.5417 30.5427 23.1667 30.1677 23.1667 29.7093V24.901C23.1667 24.676 23.3501 24.4843 23.5751 24.4843L25.0417 24.4593C25.1584 24.451 25.2584 24.3677 25.2834 24.251L25.5751 22.6593C25.6001 22.5093 25.4834 22.3677 25.3251 22.3677L23.5501 22.3927C23.3167 22.3927 23.1334 22.2093 23.1251 21.9843L23.0918 19.9426C23.0918 19.8093 23.2001 19.6927 23.3417 19.6927L25.3417 19.6593C25.4834 19.6593 25.5918 19.551 25.5918 19.4093L25.5584 17.4093C25.5584 17.2676 25.4501 17.1593 25.3084 17.1593L23.0584 17.1927C21.6751 17.2177 20.5751 18.351 20.6001 19.7343L20.6417 22.026C20.6501 22.2593 20.4668 22.4427 20.2334 22.451L19.2334 22.4677C19.0917 22.4677 18.9834 22.576 18.9834 22.7177L19.0084 24.301C19.0084 24.4427 19.1167 24.551 19.2584 24.551L20.2584 24.5343C20.4918 24.5343 20.6751 24.7177 20.6834 24.9427L20.7584 29.6927C20.7667 30.1593 20.3917 30.5427 19.9251 30.5427H18.0084C14.9751 30.5427 13.1667 28.7343 13.1667 25.6927V18.7176C13.1667 15.6843 14.9751 13.876 18.0084 13.876H24.9917C28.0251 13.876 29.8334 15.6843 29.8334 18.7176V25.701Z" fill="black"/>
</svg>
