<svg width="35" height="34" viewBox="0 0 35 34" fill="none" xmlns="http://www.w3.org/2000/svg">
<mask id="mask0_1_1056" style="mask-type:luminance" maskUnits="userSpaceOnUse" x="0" y="0" width="35" height="34">
<path d="M34.875 0H0V33.75H34.875V0Z" fill="white"/>
</mask>
<g mask="url(#mask0_1_1056)">
<path d="M34.875 33.7499H0C1.52923 32.9951 2.99495 32.1127 4.38226 31.1115C6.99272 29.2278 10.5363 27.338 14.6115 26.9758C21.5392 26.36 30.1207 31.4557 34.875 33.7499Z" fill="black"/>
<path d="M17.4343 22.0069C15.9578 18.4629 13.3001 16.9233 11.8945 16.7844C11.4918 16.7578 11.088 16.8159 10.7081 16.9551C10.3282 17.0942 9.9802 17.3115 9.6856 17.5935C9.9075 17.3186 10.1482 17.0603 10.4062 16.8207C10.0341 16.4765 9.5971 16.1444 9.5971 16.1444C9.9869 16.3316 10.4121 16.5792 10.5656 16.6758C10.9692 16.3159 11.3997 15.9889 11.8532 15.6977C11.4649 15.3768 11.0565 15.0824 10.6306 14.8162C11.1648 14.997 11.681 15.2295 12.1721 15.5105C12.7811 15.1539 13.4147 14.8432 14.0679 14.5807C13.8135 14.3643 13.5473 14.1627 13.2706 13.977C13.6528 14.1146 14.024 14.2821 14.3809 14.4781C15.084 14.2057 15.8042 13.9818 16.5366 13.8079C12.9103 12.7755 10.0754 13.9287 9.0832 14.9732C8.68027 15.404 8.4253 15.957 8.3568 16.549C7.9241 15.5412 7.16774 14.7148 6.21291 14.2064C4.05131 13.2826 1.88971 15.0939 1.88971 15.0939C2.78805 14.9163 3.71809 15.026 4.55332 15.4079L5.35654 14.8705L4.81319 15.5286C5.66358 15.9774 6.4326 16.5717 7.087 17.2855C6.54298 16.9448 5.89917 16.8102 5.26795 16.9052C3.86823 17.1406 1.32274 18.8674 0.0883789 22.508C0.631819 22.0069 1.21017 21.5469 1.81884 21.1315C1.86876 20.7241 1.94571 20.3207 2.04917 19.924C2.04455 20.2668 2.06033 20.6095 2.09642 20.9504C2.67948 20.5475 3.29151 20.1902 3.92729 19.8817C3.97862 19.3088 4.08545 18.7425 4.24621 18.1912C4.21217 18.7018 4.21217 19.2141 4.24621 19.7247C4.73371 19.5072 5.23729 19.3296 5.75224 19.1934C5.75224 19.0063 5.8054 18.5112 5.87627 18.0765C5.87627 18.0765 5.87627 18.6319 5.95895 19.1391C6.15188 19.0948 6.34875 19.0586 6.54956 19.0304C5.84083 19.7428 5.12621 21.2824 5.19117 24.591C5.19117 24.591 5.6105 23.6069 6.14795 22.5805C6.04399 22.1681 5.98848 21.7445 5.98258 21.3186C5.98258 21.3186 6.13614 21.8198 6.30741 22.2726C6.46687 21.9707 6.63815 21.6688 6.80351 21.4092L6.84486 21.3428C6.7858 21.0168 6.67949 20.3647 6.64996 19.9119C6.64996 19.9119 6.82123 20.5156 7.02204 21.0651C7.4251 20.4297 7.89877 19.8442 8.43357 19.3202C11.7291 25.1042 11.3866 33.5266 11.3866 33.5266L12.934 33.3877C12.5087 25.3578 9.9573 20.57 9.0065 19.0425C9.7739 18.9 10.5601 18.9 11.3275 19.0425C11.3275 18.5293 11.3275 17.9738 11.3275 17.9738C11.4279 18.4025 11.4988 18.8976 11.5224 19.0787C12.0462 19.1782 12.5616 19.3195 13.0639 19.5013C13.0748 18.9831 13.0511 18.4646 12.993 17.9497C13.1904 18.4892 13.3348 19.0474 13.4242 19.616C14.0893 19.8701 14.7349 20.1748 15.3554 20.5277C15.3747 20.1859 15.3747 19.8432 15.3554 19.5013C15.485 19.8961 15.5876 20.2996 15.6625 20.7088C16.2829 21.0975 16.875 21.5313 17.4343 22.0069Z" fill="black"/>
<path d="M8.44551 15.571C9.296 10.1915 12.4262 7.16063 14.3161 6.47838C14.8589 6.30036 15.4319 6.23904 15.9991 6.29826C16.5662 6.35749 17.1152 6.53598 17.6116 6.82253C17.2159 6.52967 16.7993 6.26732 16.3655 6.03764C16.7612 5.43389 17.2514 4.83013 17.2514 4.83013C16.7789 5.22257 16.2828 5.71161 16.0997 5.89274C15.4288 5.54442 14.7316 5.25166 14.0149 5.01729C14.4375 4.43745 14.8972 3.88683 15.391 3.36904C14.7167 3.79042 14.0856 4.2799 13.507 4.83013C12.5501 4.5567 11.575 4.35491 10.5894 4.22637C10.8645 3.83203 11.1603 3.45313 11.4753 3.09131C11.0004 3.41889 10.5484 3.78001 10.1228 4.17203C9.0867 4.04025 8.04233 3.98778 6.99854 4.01506C11.6348 1.3223 15.9048 1.92002 17.6057 3.01886C18.3003 3.47057 18.8361 4.13672 19.1354 4.92069C19.4779 3.43545 20.1158 1.84757 21.2911 0.960049C23.9134 -1.03235 27.4806 0.694399 27.4806 0.694399C26.1907 0.763029 24.953 1.23749 23.937 2.05285L22.6554 1.59399L23.624 2.31246C22.6054 3.21886 21.7464 4.2971 21.0844 5.5003C21.7228 4.86047 22.5568 4.46405 23.4468 4.37731C25.4548 4.22637 29.53 5.69954 32.418 10.2639C31.5002 9.7529 30.549 9.3071 29.5713 8.9296C29.372 8.381 29.1332 7.8482 28.8567 7.33572C28.9756 7.8049 29.0683 8.2806 29.1343 8.7606C28.1987 8.4132 27.2393 8.1367 26.2639 7.9334C26.006 7.16393 25.6715 6.42348 25.2658 5.72369C25.4727 6.41598 25.6325 7.12204 25.7442 7.8368C25.0028 7.70561 24.2523 7.63495 23.4999 7.62552C23.4172 7.37798 23.1987 6.70781 22.9566 6.14028C22.9566 6.14028 23.116 6.91309 23.1987 7.62552C22.9211 7.62552 22.6081 7.62552 22.366 7.67382C23.5472 8.4104 25.065 10.27 26.069 14.8344C26.069 14.8344 25.1654 13.6269 24.0905 12.4194C24.0992 11.8097 24.0337 11.2013 23.8956 10.6081C23.8956 10.6081 23.8543 11.3507 23.7716 12.0329C23.4527 11.6767 23.1219 11.3266 22.803 11.0186L22.7262 10.9462C22.7262 10.4753 22.6258 9.5515 22.5136 8.9176C22.5136 8.9176 22.5136 9.8111 22.3837 10.6322C21.6322 9.9146 20.8018 9.2885 19.9091 8.7666C17.3163 17.823 20.5646 29.2944 20.5646 29.2944L18.3912 29.6445C16.3241 18.4931 18.2318 11.0126 19.0291 8.5795C17.9297 8.6428 16.85 8.9044 15.8398 9.3523C15.6272 8.664 15.4678 7.8912 15.4678 7.8912C15.473 8.4218 15.5045 8.9517 15.5623 9.4791C14.8744 9.7939 14.2127 10.1654 13.5837 10.59C13.4054 9.8873 13.2732 9.1733 13.188 8.4527C13.0989 9.2545 13.087 10.0634 13.1526 10.8677C12.3414 11.4575 11.5735 12.1073 10.8552 12.8118C10.7253 12.3451 10.6208 11.8714 10.5421 11.393C10.5024 11.9779 10.5024 12.565 10.5421 13.1499C9.7862 13.9033 9.0854 14.7125 8.44551 15.571Z" fill="black"/>
</g>
</svg>
